<?xml version="1.0" standalone="no"?>
<!DOCTYPE svg PUBLIC "-//W3C//DTD SVG 20010904//EN"
 "http://www.w3.org/TR/2001/REC-SVG-20010904/DTD/svg10.dtd">
<svg version="1.0" xmlns="http://www.w3.org/2000/svg"
 width="900.000000pt" height="900.000000pt" viewBox="0 0 900.000000 900.000000"
 preserveAspectRatio="xMidYMid meet">
<metadata>
Created by potrace 1.11, written by Peter Selinger 2001-2013
</metadata>
<g transform="translate(0.000000,900.000000) scale(0.100000,-0.100000)"
fill="#000000" stroke="none">
<path d="M4512 8598 c-10 -29 -39 -114 -62 -188 -24 -74 -47 -137 -51 -140 -4
-3 -95 -5 -203 -5 -108 0 -196 -2 -196 -6 0 -3 72 -58 160 -123 88 -64 160
-119 160 -120 0 -1 -25 -81 -55 -177 -31 -96 -58 -182 -61 -192 -5 -16 -3 -17
13 -9 11 6 42 28 70 49 28 21 61 45 73 53 12 8 54 39 93 67 40 29 78 51 85 48
7 -3 82 -54 167 -115 84 -60 156 -110 158 -110 3 0 -22 83 -54 185 -33 102
-59 191 -58 198 0 7 71 64 159 127 87 63 156 117 154 120 -3 2 -91 5 -197 6
-106 1 -195 2 -199 3 -3 1 -34 85 -68 189 -34 103 -63 188 -65 190 -2 2 -12
-21 -23 -50z"/>
<path d="M1620 8365 c-19 -47 -79 -232 -84 -257 -2 -13 -8 -41 -12 -63 -11
-54 -11 -55 -3 -94 l8 -34 -56 54 c-30 30 -90 88 -132 129 -43 41 -90 86 -106
100 l-28 25 6 -85 c6 -109 30 -169 108 -278 35 -48 66 -89 69 -92 3 -3 19 -23
35 -45 16 -23 -19 7 -81 68 -60 59 -112 107 -115 107 -10 0 -1 -149 12 -187
22 -71 62 -137 155 -266 52 -70 94 -131 94 -134 0 -3 -57 51 -126 118 -69 68
-128 123 -132 121 -16 -6 -1 -149 23 -212 20 -52 114 -194 182 -275 35 -41
103 -135 98 -135 -3 0 -72 65 -153 144 -88 87 -149 140 -153 134 -19 -30 10
-186 47 -260 12 -24 190 -266 204 -278 15 -13 62 -80 56 -80 -4 0 -73 65 -154
144 -97 96 -149 141 -154 133 -11 -17 0 -139 17 -187 26 -75 49 -114 125 -220
128 -177 127 -179 -9 -45 -72 71 -131 123 -132 115 -1 -8 -2 -27 -3 -43 -7
-72 43 -233 87 -279 15 -16 221 -288 232 -307 4 -7 -64 57 -151 142 -175 172
-177 173 -168 60 7 -101 39 -173 138 -315 51 -73 96 -140 101 -148 4 -8 -45
38 -111 102 -65 65 -121 113 -125 107 -12 -21 1 -144 22 -205 12 -35 47 -99
78 -143 31 -44 80 -115 110 -158 l55 -78 -127 125 c-70 69 -131 126 -136 128
-8 3 -6 -102 3 -148 16 -83 41 -128 155 -280 97 -129 93 -127 -65 28 -46 45
-88 82 -93 82 -10 0 -7 -100 4 -152 14 -65 53 -135 120 -218 162 -203 163
-199 -11 -47 -123 107 -124 107 -117 6 8 -123 36 -174 216 -399 98 -121 96
-121 -59 25 -72 68 -147 130 -153 125 -8 -8 -8 -80 1 -130 14 -75 61 -160 156
-277 49 -61 99 -122 111 -134 11 -12 19 -24 17 -26 -2 -2 -68 42 -147 97
l-144 101 -3 -42 c-6 -76 53 -223 115 -286 50 -51 155 -173 148 -173 -4 0 -34
15 -68 34 -34 18 -93 50 -131 71 l-69 37 6 -52 c4 -30 24 -88 47 -136 52 -108
121 -178 301 -307 75 -53 143 -104 150 -114 16 -19 4 -18 -201 17 -69 11 -136
23 -150 25 -14 2 -47 7 -73 10 l-48 7 20 -39 c39 -77 137 -169 230 -218 33
-17 157 -51 216 -59 22 -3 65 -10 95 -16 30 -6 71 -13 90 -16 49 -8 62 -24 19
-25 -18 0 -43 -2 -54 -4 -11 -2 -49 -7 -85 -11 -36 -3 -67 -8 -70 -9 -3 -2
-41 -6 -85 -10 -44 -3 -96 -10 -115 -14 l-35 -7 48 -33 c58 -40 142 -78 204
-91 43 -10 135 -16 408 -25 132 -4 125 -3 125 -12 0 -5 -94 -35 -209 -68 -115
-33 -204 -63 -198 -67 27 -17 119 -48 164 -54 90 -13 149 -8 298 26 245 55
266 59 288 51 18 -7 -11 -25 -188 -113 l-209 -105 34 -11 c84 -27 213 -32 291
-12 43 11 324 109 448 156 36 13 61 20 55 14 -5 -5 -103 -78 -217 -163 -145
-108 -203 -156 -192 -160 30 -12 210 1 261 18 28 9 136 66 240 125 104 59 190
106 192 105 1 -1 -69 -76 -157 -166 -89 -91 -155 -167 -149 -170 22 -14 168
-1 232 21 62 20 104 44 330 190 l99 64 83 -43 c164 -84 450 -291 634 -460 l55
-50 -1100 0 c-605 0 -1120 -3 -1145 -7 -190 -27 -360 -108 -499 -239 -109
-103 -177 -212 -224 -360 -14 -44 -42 -131 -62 -194 -47 -143 -101 -251 -162
-320 -51 -58 -158 -134 -233 -165 -25 -10 -54 -22 -65 -27 -62 -27 -264 -91
-330 -105 -11 -2 -42 -10 -70 -18 l-50 -14 60 -2 c184 -7 428 0 555 16 84 10
255 52 316 77 156 63 206 118 318 349 33 67 76 138 100 165 66 73 197 131 339
149 23 3 53 7 67 10 76 12 295 17 815 16 319 0 587 -1 595 -1 10 -1 5 -10 -15
-27 -104 -89 -435 -412 -435 -425 0 -4 41 -14 91 -24 l91 -16 66 73 c126 138
397 408 417 415 11 3 308 7 660 7 l640 1 176 -175 c96 -96 205 -208 241 -249
l65 -73 92 17 c50 10 91 21 91 24 0 4 -64 70 -142 147 -129 128 -179 175 -288
273 -34 31 -34 31 -10 32 14 1 269 1 566 1 482 0 685 -4 749 -16 11 -2 46 -7
78 -10 31 -4 85 -16 120 -25 168 -49 227 -103 325 -298 38 -76 80 -156 94
-178 87 -138 291 -216 655 -251 67 -7 472 -8 478 -2 3 2 -59 21 -138 42 -316
85 -495 173 -599 293 -79 93 -134 217 -203 462 -97 346 -364 583 -724 641 -42
7 -434 11 -1125 11 l-1060 0 34 32 c203 189 493 400 674 489 l65 32 143 -94
c234 -152 290 -177 420 -185 125 -8 124 -8 -35 156 -78 80 -151 156 -162 169
l-20 24 35 -21 c174 -103 348 -197 396 -214 59 -22 234 -36 269 -23 11 5 -48
54 -187 156 -112 83 -209 156 -217 163 -8 8 96 -26 230 -75 135 -48 265 -91
289 -96 69 -12 185 -7 248 11 l57 17 -141 71 c-78 40 -174 88 -213 107 -54 26
-68 36 -54 41 25 9 43 6 253 -41 217 -49 307 -54 410 -21 126 40 126 40 -102
106 -111 32 -205 60 -207 62 -14 10 20 16 106 19 54 2 161 5 238 8 195 6 310
40 410 121 26 22 28 25 10 26 -11 0 -29 2 -40 4 -11 2 -44 6 -72 10 -29 3 -79
8 -110 11 -31 3 -64 7 -72 9 -9 1 -49 6 -89 10 -41 4 -70 11 -65 15 4 4 78 20
163 35 85 15 183 36 216 46 112 34 245 144 295 241 24 47 45 47 -238 0 -123
-21 -223 -34 -223 -30 0 5 78 66 174 137 177 132 234 189 281 280 27 54 55
145 55 178 l0 23 -52 -29 c-29 -15 -93 -50 -143 -76 l-90 -48 40 44 c21 24 57
63 79 87 107 115 152 204 163 320 5 54 4 64 -8 57 -8 -5 -74 -51 -148 -102
-73 -52 -135 -93 -136 -91 -2 2 46 64 107 138 114 140 147 194 168 270 14 49
21 158 10 165 -3 2 -27 -15 -52 -38 -25 -23 -83 -76 -128 -117 -45 -41 -87
-76 -94 -78 -7 -2 -8 -1 -1 5 6 4 26 28 45 53 19 25 37 47 41 50 3 3 38 47 76
98 52 68 77 113 93 163 21 65 32 158 22 186 -4 11 -45 -21 -187 -146 -17 -14
-41 -35 -55 -46 l-25 -20 15 20 c8 11 17 22 20 25 20 20 161 202 177 230 12
19 28 57 37 84 18 53 28 186 14 186 -4 0 -35 -26 -67 -57 -32 -32 -87 -85
-121 -118 l-62 -60 104 140 c117 158 147 224 152 335 2 38 1 72 -3 74 -4 3
-59 -47 -123 -110 -64 -63 -119 -114 -122 -114 -3 0 35 57 86 127 105 147 132
197 151 279 15 66 17 153 3 155 -4 1 -59 -49 -121 -110 -62 -61 -115 -111
-119 -111 -4 0 8 19 27 43 63 78 166 234 186 280 11 25 23 62 26 84 11 56 11
153 2 154 -5 0 -76 -65 -158 -145 -82 -81 -149 -144 -149 -141 0 3 56 80 126
171 69 91 136 190 150 219 32 71 55 240 32 240 -4 0 -61 -53 -128 -118 -114
-113 -145 -137 -99 -79 51 66 158 221 181 262 14 25 30 68 37 97 15 61 22 171
12 178 -4 2 -76 -64 -159 -146 -84 -83 -152 -147 -152 -142 1 4 53 76 116 158
129 168 155 208 179 280 17 51 28 198 14 193 -4 -2 -78 -72 -163 -155 -86 -84
-156 -150 -156 -147 0 2 51 71 113 152 142 184 162 214 187 286 21 58 33 175
21 195 -4 6 -66 -48 -141 -122 -135 -134 -141 -133 -40 3 103 138 139 197 160
261 22 66 34 176 22 196 -5 8 -46 -25 -117 -95 -110 -109 -109 -101 11 53 89
115 119 190 123 309 3 81 10 83 -104 -29 -195 -193 -215 -209 -206 -179 9 33
7 50 -14 147 -17 77 -69 237 -89 275 -13 24 -15 20 -44 -74 -17 -55 -41 -142
-53 -194 -12 -52 -23 -97 -25 -99 -3 -3 -119 93 -144 119 -3 3 -39 34 -80 69
-41 36 -85 73 -97 84 l-21 19 2 -114 c2 -98 6 -120 28 -168 15 -30 50 -80 78
-110 49 -52 92 -99 199 -214 40 -44 35 -47 -9 -6 -9 8 -44 40 -79 70 -35 30
-69 60 -75 65 -6 6 -41 36 -78 69 l-68 58 4 -118 c5 -170 8 -175 257 -441 27
-28 49 -54 49 -57 0 -4 -66 51 -146 121 -80 70 -149 129 -153 131 -5 2 -7 -48
-6 -110 2 -116 14 -163 54 -213 33 -43 264 -298 296 -328 20 -19 20 -19 -1 -5
-17 11 -111 90 -158 133 -13 12 -153 132 -178 153 -17 14 -17 8 -14 -101 2
-101 6 -122 29 -169 15 -29 55 -82 88 -118 134 -142 288 -306 296 -315 7 -9
-25 15 -53 40 -6 6 -40 35 -75 65 -35 30 -111 97 -168 148 -58 50 -109 92
-112 92 -4 0 -6 -51 -5 -112 3 -127 19 -177 78 -239 18 -20 55 -60 82 -90 27
-30 79 -85 115 -124 36 -38 77 -83 91 -100 l24 -30 -29 25 c-16 14 -34 30 -40
35 -7 6 -40 35 -75 65 -35 30 -103 90 -152 133 -48 42 -90 77 -92 77 -2 0 -3
-51 -2 -112 3 -166 8 -174 240 -422 61 -65 115 -125 120 -134 5 -8 -67 52
-160 133 -93 81 -176 154 -185 162 -14 12 -16 4 -17 -75 -2 -163 15 -205 139
-343 36 -41 88 -99 114 -129 27 -30 53 -58 59 -62 6 -4 8 -9 6 -11 -3 -3 -68
51 -145 120 -77 68 -148 128 -158 134 -16 9 -17 2 -13 -106 5 -137 24 -185
109 -276 171 -184 273 -303 212 -248 -22 20 -58 51 -79 70 -21 19 -44 39 -50
44 -43 38 -164 143 -178 153 -15 12 -16 4 -14 -105 2 -126 16 -174 68 -234 32
-37 145 -164 198 -224 24 -27 53 -61 65 -74 11 -14 -56 43 -148 125 -93 82
-172 150 -177 152 -5 2 -8 -48 -6 -111 2 -100 6 -121 29 -168 15 -30 44 -72
64 -94 21 -22 70 -76 108 -120 39 -44 75 -84 80 -90 6 -5 19 -21 30 -35 17
-21 15 -21 -15 5 -19 17 -42 37 -51 45 -9 8 -31 28 -50 44 -19 16 -65 57 -104
91 -38 34 -75 65 -82 68 -8 5 -11 -23 -9 -110 2 -105 5 -123 29 -168 14 -27
40 -65 56 -84 17 -18 52 -57 78 -86 75 -81 115 -126 147 -164 32 -38 23 -31
-144 126 -127 119 -142 133 -149 133 -4 0 -8 -45 -10 -100 -2 -88 1 -107 22
-153 20 -43 155 -222 266 -353 38 -44 -123 120 -196 201 -35 38 -65 67 -67 64
-7 -7 -20 -139 -19 -202 1 -40 8 -73 25 -106 l24 -49 -23 -28 c-28 -35 -53
-113 -53 -168 -1 -38 -4 -43 -53 -74 -29 -18 -64 -50 -79 -70 -21 -30 -39 -42
-96 -60 -45 -15 -85 -36 -114 -61 -37 -33 -54 -40 -114 -50 -92 -14 -134 -32
-184 -80 -40 -38 -42 -39 -133 -43 -111 -5 -154 -24 -221 -99 l-46 -51 -87 -2
c-114 -2 -123 -7 -303 -170 -231 -208 -325 -290 -371 -317 -156 -96 -325 -221
-498 -370 -41 -35 -88 -76 -106 -91 l-31 -26 -65 56 c-36 32 -87 75 -113 97
-27 22 -54 45 -60 51 -35 34 -276 208 -361 261 -55 34 -123 84 -151 110 -28
27 -84 78 -125 114 -41 36 -123 109 -182 162 -80 71 -121 100 -159 113 -49 16
-139 21 -159 8 -6 -3 -34 20 -62 51 -70 79 -122 102 -235 104 -84 2 -88 3
-110 32 -34 42 -108 77 -193 90 -62 9 -80 17 -115 48 -24 21 -71 47 -110 61
-54 19 -78 34 -116 75 -26 29 -64 60 -83 71 -19 10 -35 21 -35 24 -1 3 -2 30
-4 60 -2 55 -34 137 -60 159 -10 9 -8 20 11 60 16 31 25 68 26 102 1 59 -11
201 -19 208 -3 3 -31 -24 -63 -60 -32 -35 -96 -102 -141 -149 l-82 -85 64 80
c255 317 242 295 244 435 1 57 0 110 -3 116 -3 8 -15 2 -32 -15 -58 -55 -198
-186 -245 -230 -51 -47 -45 -33 9 24 17 17 57 62 90 99 33 38 77 87 97 109 20
23 49 63 63 89 24 43 27 62 31 169 3 114 3 120 -14 108 -16 -13 -72 -61 -239
-206 -67 -58 -74 -60 -28 -7 65 74 143 161 155 174 101 103 122 155 126 298 1
61 0 112 -3 112 -6 0 -53 -40 -123 -104 -119 -109 -223 -198 -205 -176 24 30
-2 0 224 255 91 104 103 133 107 276 1 65 1 119 -1 119 -2 0 -10 -6 -17 -12
-7 -7 -47 -42 -88 -78 -41 -36 -77 -67 -80 -70 -25 -25 -149 -130 -154 -130
-3 0 2 8 12 18 9 10 35 38 57 63 273 301 267 290 270 456 2 62 0 113 -4 113
-3 0 -71 -59 -151 -129 -80 -71 -147 -127 -150 -124 -2 2 0 7 5 11 6 4 42 43
80 87 39 44 88 99 109 122 94 103 107 137 112 287 l4 119 -22 -19 c-13 -11
-28 -23 -34 -29 -6 -5 -40 -35 -74 -65 -35 -30 -68 -59 -74 -65 -65 -59 -156
-135 -156 -130 0 4 6 12 13 19 6 7 51 55 99 107 47 52 109 119 137 149 28 30
63 79 78 108 23 47 26 67 29 168 3 130 9 127 -86 44 -35 -30 -72 -63 -84 -73
-12 -10 -34 -30 -51 -45 -158 -140 -184 -158 -100 -68 11 12 65 71 120 131 55
59 105 113 110 119 31 32 67 88 76 117 13 39 22 249 11 249 -4 0 -59 -46 -122
-101 -63 -56 -139 -122 -169 -147 -30 -26 -59 -51 -65 -57 -86 -75 -70 -57
233 265 39 41 83 99 98 129 24 48 27 67 29 168 2 105 1 113 -14 101 -17 -13
-153 -129 -162 -138 -31 -31 -170 -151 -170 -146 0 3 68 81 151 173 87 97 160
187 172 212 15 34 20 71 23 158 1 62 0 113 -4 113 -4 0 -25 -17 -47 -36 -22
-20 -54 -48 -70 -62 -17 -15 -65 -58 -108 -95 -42 -38 -77 -66 -77 -62 0 3 6
12 13 19 6 7 51 55 99 107 189 206 188 205 194 364 2 63 0 115 -4 115 -5 0
-17 -8 -28 -18 -10 -9 -53 -46 -94 -82 -41 -36 -93 -81 -115 -101 -22 -20 -58
-51 -80 -70 -36 -29 -35 -27 11 22 28 30 71 77 97 104 25 28 71 77 102 110 31
33 68 85 83 115 23 48 26 69 28 167 l2 113 -22 -18 c-12 -9 -86 -73 -165 -142
-79 -69 -146 -126 -151 -128 -4 -1 -13 25 -19 58 -12 60 -70 262 -89 310 l-10
25 -12 -30z m232 -5075 l-18 -94 -23 37 -23 37 38 60 c21 32 40 57 41 56 2 -2
-5 -45 -15 -96z m5394 35 l36 -54 -23 -37 -23 -37 -17 84 c-26 123 -26 124 27
44z m-221 -275 c3 -25 8 -52 10 -60 5 -16 -49 -90 -57 -80 -3 3 2 64 11 135
16 136 19 137 36 5z m-4951 50 c6 -58 15 -130 21 -167 5 -32 -10 -28 -39 10
-22 29 -23 37 -16 87 17 103 18 115 19 124 2 22 9 -3 15 -54z m4702 -67 c-10
-57 -36 -239 -38 -265 -2 -19 -10 -31 -30 -39 -16 -6 -31 -10 -33 -7 -2 2 13
60 35 129 21 70 43 145 50 168 12 46 23 55 16 14z m-4382 -290 c9 -29 -12 -31
-42 -5 -15 12 -23 34 -27 72 -3 30 -7 66 -9 80 -4 20 -13 91 -18 129 -4 38 10
2 46 -114 23 -77 46 -150 50 -162z m218 107 c19 -36 54 -100 77 -142 l42 -78
-33 4 c-18 2 -36 4 -40 5 -5 1 -77 211 -84 246 -1 6 -5 19 -10 30 -13 37 12 2
48 -65z m3852 -68 l-46 -141 -34 -7 c-19 -3 -37 -4 -39 -2 -3 3 32 70 77 151
45 81 83 145 85 144 1 -2 -18 -67 -43 -145z m-3472 -110 c32 -40 58 -77 58
-81 0 -5 -10 -6 -23 -4 -16 3 -37 28 -69 81 -93 155 -113 200 -56 121 17 -24
58 -77 90 -117z m3183 108 c-14 -22 -25 -41 -25 -44 0 -2 -18 -35 -40 -72 -32
-55 -46 -70 -70 -75 -34 -7 -41 -20 74 129 43 56 80 102 82 102 2 0 -7 -18
-21 -40z m-2780 -248 c-3 -3 -20 9 -38 27 l-32 34 38 -28 c21 -15 35 -30 32
-33z m2323 29 c-13 -17 -29 -30 -37 -30 -8 -1 1 13 19 29 42 38 48 38 18 1z
m-2378 -1098 c0 -6 4 -14 9 -17 5 -3 27 38 49 92 32 77 45 98 62 100 19 3 22
0 16 -21 -11 -46 -120 -296 -127 -291 -4 2 -21 46 -39 99 -18 52 -36 92 -40
90 -4 -3 -23 -47 -41 -100 -18 -52 -37 -91 -41 -87 -8 8 -66 149 -103 250
l-23 62 23 0 c20 0 28 -13 60 -92 20 -51 40 -96 44 -100 4 -5 24 40 46 98 l38
105 34 -88 c18 -48 33 -93 33 -100z m591 26 c38 -84 69 -154 69 -156 0 -1 -11
-3 -24 -3 -18 0 -27 9 -39 37 l-14 37 -68 1 -67 1 -15 -38 c-12 -29 -21 -38
-39 -38 -13 0 -24 3 -24 6 0 12 144 313 148 309 2 -2 35 -72 73 -156z m989
-151 c0 -5 -10 -8 -22 -8 -17 0 -27 10 -39 38 l-15 37 -64 0 c-64 0 -64 0 -84
-38 -14 -26 -26 -37 -43 -37 -27 0 -29 -6 62 184 l67 139 69 -154 c38 -85 69
-157 69 -161z m-2342 278 c89 -46 102 -178 26 -246 -37 -32 -77 -43 -143 -38
l-44 3 1 90 c1 50 1 118 1 153 l1 62 63 -4 c35 -2 78 -11 95 -20z m395 -9 c42
-32 61 -83 54 -144 -11 -103 -118 -165 -216 -126 -64 25 -103 92 -96 164 5 50
27 84 76 117 47 33 132 28 182 -11z m617 -104 l5 -129 33 -1 c17 -1 37 -2 42
-2 6 -1 10 -10 10 -21 0 -18 -7 -20 -70 -20 l-70 0 0 155 0 155 23 -4 c21 -3
22 -8 27 -133z m622 116 c50 -27 78 -75 78 -137 0 -89 -75 -152 -180 -152
l-56 0 1 143 c1 78 3 148 3 155 2 16 120 9 154 -9z m317 -7 c14 -10 37 -34 49
-53 20 -28 23 -43 19 -85 -10 -94 -56 -134 -166 -142 l-68 -4 0 155 0 156 70
-4 c49 -2 78 -9 96 -23z m615 -35 c-1 -63 0 -63 81 -62 l50 0 0 58 c0 47 3 58
18 63 10 3 21 3 24 0 4 -3 7 -74 7 -156 l1 -151 -25 3 c-24 3 -25 6 -24 71 l1
67 -67 0 -66 0 0 -67 c1 -59 -2 -68 -18 -71 -10 -2 -21 1 -25 6 -5 8 -6 154
-2 279 1 18 6 22 24 19 20 -3 22 -8 21 -59z m486 45 c94 -47 110 -184 28 -259
-26 -24 -81 -41 -118 -37 -14 1 -31 3 -37 3 -25 2 -92 72 -99 104 -21 86 14
167 86 196 39 15 102 13 140 -7z m393 -8 c67 -45 87 -158 40 -223 -46 -63
-147 -83 -217 -43 -47 26 -80 100 -71 158 7 47 51 109 89 125 39 16 124 7 159
-17z m288 5 c19 -19 20 -23 6 -36 -14 -14 -17 -14 -32 1 -19 18 -38 20 -65 6
-32 -17 -16 -44 42 -74 73 -37 94 -81 67 -140 -7 -14 -26 -32 -44 -40 -51 -25
-104 -6 -130 44 -15 29 -15 31 7 39 19 7 24 5 31 -15 10 -27 52 -42 76 -27 9
6 17 24 19 41 3 28 -1 33 -50 58 -62 31 -77 49 -78 87 0 67 102 105 151 56z
m269 -7 c0 -20 -4 -23 -37 -21 -80 4 -83 2 -83 -39 l0 -37 58 0 c52 0 57 -2
60 -22 3 -22 0 -23 -57 -23 l-61 0 0 -48 0 -48 60 1 c56 0 60 -2 60 -22 0 -22
-4 -23 -85 -23 l-84 0 1 153 0 154 84 -1 c81 0 84 -1 84 -24z"/>
<path d="M3832 1504 l-21 -49 25 -3 c13 -2 33 -2 43 0 19 3 19 5 -3 52 l-22
49 -22 -49z"/>
<path d="M4752 1495 l-22 -45 46 0 c40 0 45 2 39 18 -4 9 -12 29 -17 45 -5 15
-13 27 -17 27 -4 0 -17 -20 -29 -45z"/>
<path d="M2473 1591 c-5 -3 -9 -53 -8 -111 l1 -105 39 3 c53 5 74 18 91 57 21
51 17 81 -13 115 -27 30 -91 54 -110 41z"/>
<path d="M2812 1580 c-95 -58 -51 -210 62 -210 36 0 50 6 75 31 32 31 35 41
32 94 -2 44 -20 72 -56 90 -44 20 -73 19 -113 -5z"/>
<path d="M4100 1485 l0 -112 35 2 c89 6 138 98 91 171 -20 30 -47 44 -91 48
l-35 2 0 -111z"/>
<path d="M4410 1482 l0 -110 37 4 c72 7 121 73 102 138 -13 45 -41 68 -93 73
l-46 6 0 -111z"/>
<path d="M5502 1585 c-68 -30 -80 -140 -20 -190 38 -32 103 -34 141 -4 59 46
55 152 -7 190 -37 22 -69 24 -114 4z"/>
<path d="M5884 1590 c-56 -23 -81 -113 -47 -170 35 -59 122 -69 172 -19 29 29
36 49 32 94 -6 80 -82 126 -157 95z"/>
<path d="M4435 7708 c-399 -212 -883 -332 -1340 -331 -266 1 -506 31 -750 94
-66 17 -126 32 -134 32 -13 2 -15 -223 -15 -1668 1 -918 3 -1704 7 -1745 15
-184 92 -400 199 -559 44 -65 110 -142 181 -211 62 -60 65 -61 182 -75 46 -5
125 -13 205 -21 30 -3 71 -7 90 -9 111 -13 313 -20 600 -20 306 1 436 5 625
22 104 10 367 10 475 1 212 -19 317 -23 640 -23 301 0 541 8 590 20 8 2 56 7
105 11 50 4 97 8 105 9 37 5 166 17 173 16 37 -6 201 158 283 284 89 138 137
251 177 420 21 90 21 98 24 1813 2 1034 -1 1722 -6 1722 -5 0 -49 -9 -98 -21
-122 -29 -115 -28 -238 -49 -146 -25 -175 -28 -308 -36 -233 -15 -467 -4 -682
32 -134 22 -131 21 -260 53 -224 56 -412 124 -615 225 l-125 62 -90 -48z m187
-342 c129 -69 168 -120 187 -241 4 -31 12 -49 19 -47 7 1 27 4 45 7 50 6 110
15 137 20 14 3 43 7 65 10 22 4 65 10 95 15 57 10 87 15 155 25 22 3 83 12
135 20 52 9 156 24 230 35 74 12 174 27 221 35 77 14 137 22 194 28 18 2 20
-5 22 -75 1 -43 -1 -79 -5 -82 -4 -2 -41 -7 -82 -11 -41 -3 -88 -8 -105 -10
-16 -2 -66 -7 -110 -11 -44 -3 -91 -7 -105 -9 -14 -1 -61 -5 -105 -9 -44 -4
-98 -9 -120 -11 -22 -2 -67 -7 -100 -10 -33 -3 -76 -8 -95 -10 -19 -2 -69 -7
-110 -10 -41 -3 -88 -8 -105 -10 -16 -2 -66 -7 -110 -10 -44 -4 -89 -9 -100
-10 -11 -1 -26 -3 -34 -4 -28 -2 -2 -13 41 -16 50 -3 187 -15 239 -20 20 -2
70 -7 110 -10 41 -3 90 -7 109 -10 19 -2 71 -7 115 -11 44 -3 94 -8 110 -9 17
-2 68 -6 115 -10 47 -3 103 -8 125 -10 22 -2 67 -6 100 -9 33 -3 83 -8 110
-11 28 -3 79 -7 114 -10 36 -3 67 -7 69 -9 6 -6 6 -215 0 -221 -3 -3 -49 4
-103 15 -54 12 -107 23 -118 26 -33 6 -258 54 -302 64 -22 5 -87 18 -145 30
-58 12 -112 23 -120 25 -8 2 -60 13 -115 25 -55 12 -109 23 -120 26 -17 4 -16
2 4 -13 74 -53 148 -155 174 -238 18 -60 25 -97 32 -190 3 -38 7 -92 10 -120
3 -27 7 -81 10 -120 6 -76 12 -153 20 -242 3 -32 7 -87 10 -123 3 -36 7 -85
10 -110 2 -25 7 -81 10 -125 4 -44 8 -100 10 -125 2 -25 7 -79 10 -120 6 -72
10 -127 20 -235 2 -27 7 -86 10 -130 3 -44 8 -102 10 -130 3 -27 8 -79 10
-115 3 -36 7 -88 9 -115 3 -28 8 -88 11 -135 4 -47 8 -101 10 -120 2 -19 6
-78 10 -130 7 -94 12 -130 17 -135 2 -1 28 -15 58 -30 121 -60 229 -160 299
-277 45 -75 86 -186 96 -260 12 -86 12 -210 1 -214 -40 -14 -351 -28 -626 -28
-217 0 -534 10 -575 18 -31 6 -243 19 -315 19 -58 0 -191 -8 -290 -18 -224
-23 -1002 -23 -1125 0 -11 2 -37 4 -58 4 l-38 1 2 93 c5 222 82 404 230 541
57 53 200 146 225 146 7 0 14 36 19 102 4 56 8 109 10 118 2 9 6 61 10 116 4
54 8 113 10 129 1 17 5 68 9 115 4 47 9 105 11 130 3 25 7 77 10 115 3 39 7
95 10 125 3 30 7 87 10 125 3 39 7 90 10 115 2 25 7 81 10 125 12 172 15 212
20 255 2 25 7 79 10 120 3 41 8 95 10 120 2 25 7 79 10 120 10 123 13 162 19
230 3 36 8 97 11 135 19 234 46 308 158 418 40 40 60 66 48 62 -11 -3 -31 -8
-44 -11 -13 -2 -109 -22 -213 -45 -104 -22 -198 -42 -210 -45 -11 -2 -85 -17
-165 -34 -79 -17 -157 -33 -174 -36 -16 -3 -55 -11 -85 -18 -30 -8 -72 -17
-92 -20 l-38 -7 0 116 0 115 28 1 c15 0 36 2 47 4 11 2 52 6 90 9 39 3 151 12
250 21 199 18 224 20 340 30 44 3 96 8 115 10 19 2 67 7 105 10 39 3 88 8 110
10 22 2 76 7 120 11 44 4 91 8 105 9 14 2 36 4 50 5 l25 2 -26 8 c-15 4 -67
11 -115 15 -49 4 -102 8 -119 10 -16 2 -66 7 -110 10 -44 4 -91 8 -105 10 -14
1 -61 6 -105 9 -44 4 -91 9 -105 11 -14 2 -65 7 -115 10 -49 4 -97 8 -105 10
-8 3 -54 7 -102 10 -48 3 -96 8 -107 10 -10 2 -57 6 -103 10 -45 4 -85 10 -88
15 -4 6 -5 118 -1 153 1 5 9 6 19 3 9 -3 35 -7 57 -11 22 -3 54 -7 70 -10 17
-3 48 -7 70 -10 75 -11 300 -46 385 -60 47 -8 103 -16 125 -20 22 -3 67 -10
100 -15 33 -5 78 -12 100 -15 22 -3 56 -8 75 -11 19 -4 46 -8 60 -10 14 -2 65
-10 114 -19 107 -18 136 -19 137 -2 0 6 2 19 4 27 2 8 6 30 9 49 9 45 39 101
69 129 27 25 184 111 204 112 7 0 49 -20 95 -44z"/>
<path d="M4478 7336 c-21 -12 -40 -24 -43 -27 -2 -3 41 -6 96 -6 55 -1 99 0
97 2 -10 9 -98 55 -105 54 -4 0 -25 -11 -45 -23z"/>
<path d="M4394 7253 c1 -27 3 -28 62 -31 l61 -3 -1 28 c-2 27 -4 28 -62 31
-61 3 -61 3 -60 -25z"/>
<path d="M4540 7250 l0 -30 60 0 60 0 0 30 0 30 -60 0 -60 0 0 -30z"/>
<path d="M4347 7252 c-22 -24 -21 -32 3 -32 15 0 20 7 20 25 0 30 -2 30 -23 7z"/>
<path d="M4684 7247 c2 -14 11 -23 25 -25 20 -3 21 -2 9 17 -19 30 -38 35 -34
8z"/>
<path d="M4309 7178 c-5 -10 -8 -18 -7 -19 2 0 30 -1 63 -2 52 -1 60 2 60 18
0 27 -102 30 -116 3z"/>
<path d="M4454 7189 c-12 -20 9 -35 44 -33 20 1 52 3 70 3 26 1 33 5 30 19 -3
14 -15 17 -72 17 -37 0 -70 -3 -72 -6z"/>
<path d="M4624 7175 c2 -17 11 -19 65 -20 56 0 61 2 59 20 -3 17 -11 19 -65
20 -56 0 -62 -2 -59 -20z"/>
<path d="M4296 7123 c-3 -8 2 -13 14 -13 11 0 20 6 20 13 0 8 -7 14 -15 14 -8
0 -16 -6 -19 -14z"/>
<path d="M4367 7132 c-10 -2 -15 -8 -12 -13 8 -12 165 -12 165 1 0 6 -10 10
-22 11 -83 3 -117 4 -131 1z"/>
<path d="M4544 7131 c-15 -15 6 -21 76 -21 47 0 80 4 80 10 0 11 0 11 -88 13
-35 1 -66 0 -68 -2z"/>
<path d="M4720 7124 c0 -8 9 -14 20 -14 11 0 20 4 20 9 0 5 -9 11 -20 14 -13
3 -20 0 -20 -9z"/>
<path d="M4289 7081 c-1 -3 -2 -17 -3 -31 -1 -24 1 -25 64 -25 l65 0 0 30 c0
29 0 29 -62 30 -35 1 -64 -1 -64 -4z"/>
<path d="M4443 7073 c-3 -6 -3 -20 -1 -29 3 -15 16 -18 86 -20 l82 -1 0 31 0
31 -81 1 c-55 0 -83 -4 -86 -13z"/>
<path d="M4642 7080 c-9 -7 -9 -37 1 -47 5 -4 35 -8 68 -9 53 0 59 2 59 20 0
12 -4 26 -8 31 -7 11 -107 15 -120 5z"/>
<path d="M4275 6989 c-9 -13 0 -22 25 -26 14 -2 20 3 20 17 0 22 -34 28 -45 9z"/>
<path d="M4344 6983 c3 -16 15 -18 86 -18 71 0 83 2 86 18 2 15 -8 17 -86 17
-78 0 -88 -2 -86 -17z"/>
<path d="M4542 6983 c3 -15 16 -18 86 -19 73 0 82 1 82 18 0 16 -9 18 -86 18
-76 0 -85 -2 -82 -17z"/>
<path d="M4735 6990 c-9 -15 3 -29 25 -27 27 2 27 37 1 37 -11 0 -23 -4 -26
-10z"/>
<path d="M4274 6911 c-2 -2 -4 -30 -4 -61 l0 -57 254 0 254 0 4 43 c6 85 24
79 -255 79 -137 0 -250 -2 -253 -4z"/>
<path d="M4180 6887 c-160 -42 -219 -61 -243 -76 -29 -18 -27 -18 125 -16 84
1 156 3 159 3 6 2 4 91 -2 96 -2 1 -20 -2 -39 -7z"/>
<path d="M4830 6843 l0 -50 150 0 c83 0 150 3 150 7 0 18 -144 65 -262 86
l-38 6 0 -49z"/>
<path d="M3818 6712 c-24 -28 -48 -71 -48 -86 0 -2 72 -3 160 -3 l161 0 -3 61
-3 61 -118 0 -119 1 -30 -34z"/>
<path d="M4144 6741 c-2 -2 -4 -30 -4 -61 l0 -57 180 0 c195 0 183 -4 183 52
0 8 -1 28 -2 43 l-1 28 -176 -1 c-97 0 -178 -2 -180 -4z"/>
<path d="M4560 6742 c-5 -2 -10 -30 -10 -61 l0 -58 182 1 183 1 0 60 1 60
-173 0 c-95 0 -177 -1 -183 -3z"/>
<path d="M4966 6740 c-2 -3 -2 -30 -2 -60 l1 -55 163 -1 c89 -1 162 1 162 3 0
12 -64 99 -79 108 -17 10 -240 15 -245 5z"/>
<path d="M3738 6551 c-5 -14 -10 -41 -11 -61 l-2 -35 73 -1 72 -1 0 62 0 61
-61 0 c-56 -1 -62 -3 -71 -25z"/>
<path d="M3924 6571 c-2 -2 -4 -30 -4 -61 l0 -56 187 0 187 1 2 60 2 60 -185
0 c-101 0 -186 -2 -189 -4z"/>
<path d="M4359 6572 c-12 -2 -15 -14 -13 -55 1 -29 2 -55 3 -58 1 -3 82 -6
181 -5 l181 0 -3 60 -3 61 -165 0 c-91 0 -172 -1 -181 -3z"/>
<path d="M4759 6563 c-1 -7 -1 -22 -1 -33 0 -11 0 -33 1 -48 l1 -28 185 0
c123 0 185 3 186 10 4 43 4 106 -1 107 -3 1 -87 2 -187 3 -141 1 -183 -2 -184
-11z"/>
<path d="M5184 6515 l1 -60 73 0 74 -1 -6 47 c-9 75 -10 75 -80 75 l-64 -1 2
-60z"/>
<path d="M3721 6400 c-3 -3 -8 -30 -9 -61 l-4 -55 179 0 178 1 1 50 c0 28 -1
55 -3 60 -4 11 -328 15 -342 5z"/>
<path d="M4121 6400 c-5 -3 -8 -30 -7 -60 l1 -55 194 0 194 0 -1 50 c0 28 0
55 -1 60 -1 10 -365 15 -380 5z"/>
<path d="M4554 6401 c-2 -2 -4 -30 -4 -61 l0 -56 195 0 196 0 -3 61 -3 60
-188 0 c-104 0 -190 -2 -193 -4z"/>
<path d="M4990 6344 l0 -61 178 1 177 1 -3 55 c-2 30 -6 57 -9 60 -2 3 -81 5
-174 5 l-169 0 0 -61z"/>
<path d="M3718 6232 c-13 -2 -18 -13 -19 -35 0 -18 -2 -44 -4 -58 l-3 -26 76
1 77 1 0 60 0 59 -55 1 c-30 0 -63 -1 -72 -3z"/>
<path d="M3897 6225 c-3 -9 -2 -81 2 -103 1 -11 367 -10 378 1 9 9 11 106 3
108 -29 8 -380 2 -383 -6z"/>
<path d="M4333 6224 c-2 -6 -3 -33 -1 -60 l3 -49 193 -1 192 -1 0 61 0 61
-191 0 c-133 0 -193 -3 -196 -11z"/>
<path d="M4770 6175 l0 -61 195 0 195 0 -1 58 c-1 32 -4 59 -8 59 -3 1 -90 2
-193 3 l-188 1 0 -60z"/>
<path d="M5209 6220 c-1 -8 -2 -35 -2 -60 l-1 -45 77 -1 78 0 -5 45 c-2 25 -5
53 -5 61 -1 23 -140 23 -142 0z"/>
<path d="M3688 6050 c-2 -8 -4 -35 -3 -60 l0 -45 183 -1 c177 0 182 0 183 20
0 12 2 36 3 53 1 18 0 36 -3 41 -3 4 -86 8 -183 8 -150 -1 -177 -3 -180 -16z"/>
<path d="M4109 6059 c-6 -3 -9 -30 -7 -60 l3 -54 194 -1 c135 0 194 3 197 11
11 27 10 96 0 103 -14 8 -373 10 -387 1z"/>
<path d="M4560 6062 c-5 -2 -10 -29 -10 -60 l0 -57 200 -1 200 -1 0 61 0 61
-190 0 c-104 0 -194 -1 -200 -3z"/>
<path d="M5002 6005 l3 -60 183 -1 182 -1 0 53 c0 31 -5 56 -12 61 -7 4 -91 8
-186 8 l-173 0 3 -60z"/>
<path d="M3675 5890 c-2 -3 -5 -30 -6 -60 l-3 -55 77 -1 c65 -2 77 1 78 15 5
84 5 101 0 102 -21 4 -143 4 -146 -1z"/>
<path d="M3880 5892 c-5 -2 -10 -29 -10 -61 l0 -57 200 0 200 0 0 61 0 60
-190 0 c-104 0 -194 -1 -200 -3z"/>
<path d="M4323 5884 c-2 -6 -3 -33 -1 -60 l3 -49 203 -1 c163 -1 202 2 203 12
1 8 1 25 1 39 0 14 0 35 -1 48 l-1 22 -201 0 c-143 1 -203 -3 -206 -11z"/>
<path d="M4786 5890 c-2 -3 -4 -30 -5 -61 l-2 -56 201 0 c196 0 200 1 201 21
0 12 2 34 3 49 3 51 1 52 -204 52 -106 0 -193 -2 -194 -5z"/>
<path d="M5235 5892 c-3 -3 -5 -31 -5 -63 l0 -57 80 1 80 1 -6 56 c-3 30 -8
57 -11 60 -6 6 -132 8 -138 2z"/>
<path d="M3659 5695 c-1 -16 -2 -43 -3 -60 l-1 -30 192 -1 c216 0 204 -6 193
81 l-5 40 -187 0 -188 0 -1 -30z"/>
<path d="M4090 5664 l0 -61 199 1 c110 1 203 4 207 9 12 11 11 107 -1 108 -5
1 -99 2 -207 3 l-198 1 0 -61z"/>
<path d="M4559 5719 c-6 -3 -9 -30 -7 -60 l3 -54 203 0 c111 -1 202 2 203 5 4
22 3 102 -1 108 -6 9 -387 10 -401 1z"/>
<path d="M5013 5714 c-2 -6 -3 -33 -1 -60 l3 -49 193 -1 193 0 -5 60 c-2 34
-5 61 -5 61 -1 0 -85 0 -187 0 -131 0 -188 -3 -191 -11z"/>
<path d="M3650 5556 c-1 -1 -3 -29 -7 -62 l-5 -61 78 1 79 1 3 58 c2 31 -1 57
-5 58 -11 1 -143 6 -143 5z"/>
<path d="M3849 5533 c-1 -13 -2 -40 -2 -60 l-1 -38 204 0 205 0 0 60 0 60
-202 0 -203 0 -1 -22z"/>
<path d="M4310 5494 l0 -61 217 1 216 1 3 58 c1 31 -1 58 -4 58 -4 1 -103 2
-219 3 l-213 1 0 -61z"/>
<path d="M4796 5550 c-2 -3 -3 -30 -2 -60 l1 -55 205 0 205 0 2 58 c1 31 -2
58 -5 58 -22 4 -404 3 -406 -1z"/>
<path d="M5256 5506 c1 -28 2 -56 3 -62 1 -16 150 -15 152 0 3 20 -3 101 -7
105 -3 3 -37 5 -77 6 l-73 1 2 -50z"/>
<path d="M3635 5380 c-2 -3 -5 -30 -6 -60 l-4 -55 196 0 195 -1 1 61 1 60
-190 0 c-104 0 -191 -2 -193 -5z"/>
<path d="M4078 5380 c-11 -4 -16 -55 -9 -106 2 -16 431 -14 432 3 0 7 1 29 1
48 0 19 -1 41 -1 48 -1 9 -49 12 -206 12 -112 0 -210 -2 -217 -5z"/>
<path d="M4550 5325 l0 -61 220 0 221 0 -3 61 -3 60 -217 0 -218 0 0 -60z"/>
<path d="M5042 5380 c-6 -4 -7 -63 -3 -105 1 -7 67 -11 194 -10 l192 0 0 45
c1 81 15 75 -191 75 -102 0 -188 -2 -192 -5z"/>
<path d="M3619 5210 c0 -3 -2 -30 -5 -61 l-5 -56 80 0 c49 0 81 4 84 11 3 10
2 52 -2 96 -1 13 -15 16 -76 15 -41 0 -75 -2 -76 -5z"/>
<path d="M3825 5210 c-1 -3 -2 -30 -1 -60 l1 -55 218 -1 218 0 -3 60 -3 61
-213 0 c-118 0 -215 -2 -217 -5z"/>
<path d="M4310 5154 l0 -61 217 1 218 1 1 58 c1 31 -1 58 -5 58 -3 1 -102 2
-218 3 l-213 1 0 -61z"/>
<path d="M4799 5215 c-1 0 -2 -27 -3 -61 l-2 -60 215 0 216 1 3 60 3 60 -216
0 c-118 0 -216 0 -216 0z"/>
<path d="M5280 5154 l0 -60 78 1 c42 1 80 3 83 4 6 1 5 10 -6 81 l-5 36 -75
-1 -75 0 0 -61z"/>
<path d="M3607 5038 c-7 -4 -9 -8 -6 -8 3 0 3 -20 -1 -45 -4 -29 -3 -48 4 -53
6 -5 99 -8 206 -8 l195 1 0 60 0 60 -193 0 c-106 1 -198 -3 -205 -7z"/>
<path d="M4062 5040 c-5 -3 -8 -30 -8 -60 l1 -55 224 0 224 0 0 45 c-1 25 -1
52 -2 60 -1 14 -30 16 -216 16 -119 0 -219 -3 -223 -6z"/>
<path d="M4553 5034 c-2 -6 -3 -33 -1 -60 l3 -49 220 0 220 0 3 60 3 61 -222
0 c-159 0 -223 -4 -226 -12z"/>
<path d="M5050 4985 l0 -61 203 1 202 0 -1 35 c-1 19 -2 47 -3 61 l-1 25 -200
0 -200 -1 0 -60z"/>
<path d="M3601 4870 c-5 -3 -12 -30 -15 -61 l-7 -55 86 0 85 0 0 60 0 61 -70
1 c-39 0 -74 -3 -79 -6z"/>
<path d="M3800 4814 l0 -60 228 0 227 1 0 60 0 60 -227 0 -228 0 0 -61z"/>
<path d="M4310 4814 l0 -60 213 1 c116 1 215 3 218 4 7 1 7 111 -1 112 -3 1
-101 2 -217 3 l-213 1 0 -61z"/>
<path d="M4801 4870 c-4 -3 -7 -30 -7 -61 l-1 -56 231 1 230 1 1 58 c1 31 -1
58 -4 58 -19 4 -444 3 -450 -1z"/>
<path d="M5306 4871 c-2 -3 -3 -31 -2 -61 l1 -55 83 -1 82 -1 -1 48 c-1 26 -6
54 -10 61 -8 13 -147 21 -153 9z"/>
<path d="M3582 4700 c-4 -3 -9 -30 -10 -61 l-3 -56 206 1 206 1 -3 60 -3 60
-193 0 c-107 0 -197 -2 -200 -5z"/>
<path d="M4030 4645 l0 -60 235 0 c257 0 237 -5 237 55 0 11 0 30 -1 43 l-1
23 -235 0 -235 0 0 -61z"/>
<path d="M4561 4702 c-6 -2 -11 -28 -11 -61 l0 -57 238 0 238 0 -2 55 c-1 31
-2 58 -3 61 -1 6 -443 8 -460 2z"/>
<path d="M5075 4695 c-2 -5 -3 -32 -2 -60 l2 -50 205 0 205 0 -3 55 c-2 30 -6
57 -9 60 -10 10 -395 6 -398 -5z"/>
<path d="M3566 4531 c-2 -3 -5 -31 -7 -61 l-4 -55 85 0 85 0 1 58 c1 31 -1 58
-5 58 -25 5 -153 4 -155 0z"/>
<path d="M3782 4530 c-6 -4 -9 -74 -4 -106 1 -7 77 -10 230 -8 125 0 230 2
233 3 4 0 7 27 8 59 l0 58 -230 0 c-126 0 -233 -3 -237 -6z"/>
<path d="M4298 4526 c-2 -6 -3 -33 -3 -61 l1 -50 229 0 230 0 0 60 0 60 -227
0 c-154 1 -228 -2 -230 -9z"/>
<path d="M4809 4518 c-1 -10 -1 -34 -1 -53 0 -19 0 -39 1 -43 1 -5 106 -8 234
-8 l232 1 3 60 3 60 -236 0 c-218 0 -235 -1 -236 -17z"/>
<path d="M5330 4475 l0 -62 83 1 82 1 -2 50 c0 28 -2 55 -2 60 -1 6 -34 10
-81 11 l-80 0 0 -61z"/>
<path d="M3550 4361 c-1 -3 -3 -31 -6 -62 l-6 -55 208 0 209 1 0 60 0 60 -202
1 c-112 0 -203 -2 -203 -5z"/>
<path d="M4007 4355 c-2 -5 -3 -32 -3 -60 l1 -50 249 0 249 0 0 38 c-1 20 -2
47 -2 60 l-1 23 -245 0 c-161 0 -246 -4 -248 -11z"/>
<path d="M4550 4305 l0 -61 248 0 247 1 3 60 3 60 -251 1 -250 0 0 -61z"/>
<path d="M5104 4358 c-8 -13 -7 -98 1 -106 4 -4 96 -7 206 -8 l199 0 0 50 c0
28 -4 56 -8 61 -9 13 -390 16 -398 3z"/>
<path d="M3540 4190 c-4 -3 -10 -30 -11 -60 l-3 -55 97 -1 c53 0 97 2 98 5 7
38 8 111 2 112 -26 4 -176 4 -183 -1z"/>
<path d="M3781 4190 c-6 -4 -8 -88 -2 -111 0 -3 98 -5 216 -5 l215 0 0 60 0
61 -211 0 c-116 0 -214 -2 -218 -5z"/>
<path d="M4260 4135 l0 -61 263 0 c144 0 264 3 267 7 3 4 5 31 4 61 l0 53
-267 0 -267 0 0 -60z"/>
<path d="M4845 4185 c-2 -5 -3 -32 -2 -60 l2 -50 218 -1 218 0 -3 60 -3 61
-214 0 c-137 0 -214 -3 -216 -10z"/>
<path d="M5330 4135 l0 -61 100 0 100 0 -6 55 c-3 31 -8 58 -11 61 -2 3 -45 5
-94 5 l-89 1 0 -61z"/>
<path d="M3520 3965 l0 -60 204 -1 204 0 4 36 c1 19 2 46 0 60 l-3 26 -204 -1
-205 0 0 -60z"/>
<path d="M3982 3965 l3 -60 254 -1 c190 0 254 3 258 12 10 26 9 104 -1 105 -6
1 -125 2 -264 3 l-253 1 3 -60z"/>
<path d="M4554 4021 c-2 -2 -4 -30 -4 -61 l0 -56 260 0 c169 1 260 4 261 11 3
54 3 105 -1 106 -15 4 -512 4 -516 0z"/>
<path d="M5129 4019 c-6 -3 -9 -30 -7 -60 l3 -54 190 -1 c105 0 197 2 206 4
12 3 15 16 14 60 l-1 57 -197 0 c-109 0 -202 -2 -208 -6z"/>
<path d="M3413 3991 c-57 -31 -103 -65 -106 -78 -1 -4 35 -8 81 -9 l82 0 0 58
c0 32 -1 58 -2 58 -2 0 -26 -13 -55 -29z"/>
<path d="M5582 3962 l1 -57 83 -1 c46 0 84 3 84 7 0 13 -107 84 -152 101 -14
6 -16 -1 -16 -50z"/>
<path d="M3245 3851 c-3 -2 -5 -30 -5 -61 l0 -56 242 0 243 1 0 60 0 60 -238
0 c-131 1 -240 -1 -242 -4z"/>
<path d="M3775 3850 c-3 -5 0 -97 4 -110 0 -3 98 -6 216 -6 l215 0 0 61 0 61
-216 0 c-119 0 -217 -3 -219 -6z"/>
<path d="M4264 3851 c-2 -2 -4 -30 -4 -60 l0 -56 265 -1 c212 0 265 2 266 13
1 7 1 29 1 48 0 19 0 41 -1 48 -1 10 -57 13 -262 13 -143 -1 -262 -2 -265 -5z"/>
<path d="M4849 3850 c-5 -4 -8 -31 -7 -61 l3 -54 215 0 215 0 0 60 0 60 -208
0 c-114 0 -212 -2 -218 -5z"/>
<path d="M5330 3794 l0 -61 233 1 c127 1 237 4 242 8 9 5 11 55 6 103 -1 7
-83 11 -241 11 l-240 -1 0 -61z"/>
<path d="M3166 3765 c-9 -14 -15 -25 -14 -26 32 -9 38 -5 38 22 0 35 -3 36
-24 4z"/>
<path d="M5860 3767 c0 -29 17 -44 31 -30 6 6 2 18 -11 33 l-20 23 0 -26z"/>
<path d="M3126 3676 c-10 -8 -46 -95 -46 -110 0 -1 82 -1 183 -1 l182 0 0 60
0 60 -153 1 c-98 1 -157 -3 -166 -10z"/>
<path d="M3502 3681 c-12 -9 -10 -111 3 -112 5 -1 102 -2 215 -3 l205 -2 5 25
c3 14 4 42 2 61 l-4 36 -209 0 c-115 0 -213 -2 -217 -5z"/>
<path d="M3980 3625 l0 -60 260 -1 260 0 0 61 0 61 -260 0 -260 -1 0 -60z"/>
<path d="M4555 3681 c-3 -2 -5 -30 -5 -60 l0 -57 260 1 260 0 1 25 c1 14 2 41
3 60 l1 35 -258 1 c-141 0 -260 -2 -262 -5z"/>
<path d="M5121 3628 c0 -32 4 -59 7 -59 4 -1 103 -2 220 -3 l213 -1 -3 60 -3
60 -217 1 -217 1 0 -59z"/>
<path d="M5609 3668 c-1 -10 -1 -27 -1 -38 0 -11 0 -30 1 -43 l1 -22 180 -1
c194 0 190 -1 169 53 -31 76 -14 70 -190 69 -146 0 -159 -2 -160 -18z"/>
<path d="M3066 3498 c-3 -13 -6 -42 -6 -65 0 -39 2 -43 23 -39 19 3 22 9 23
57 1 48 -7 68 -27 69 -4 0 -9 -10 -13 -22z"/>
<path d="M3156 3510 c-3 -5 0 -98 3 -110 0 -3 120 -6 266 -6 l265 0 0 58 c0
32 -3 59 -7 59 -25 4 -525 3 -527 -1z"/>
<path d="M3741 3500 c-3 -8 -6 -35 -6 -60 l1 -45 263 -1 262 0 -3 60 -3 61
-253 0 c-218 0 -255 -2 -261 -15z"/>
<path d="M4310 3455 l0 -61 210 0 c140 0 210 3 211 10 4 69 2 106 -6 107 -5 1
-101 2 -212 3 l-203 1 0 -60z"/>
<path d="M4789 3509 c-6 -3 -9 -30 -7 -60 l3 -54 265 0 265 0 0 60 0 60 -258
0 c-142 0 -263 -2 -268 -6z"/>
<path d="M5366 3510 c-1 -3 -2 -30 -2 -60 l1 -55 265 0 265 0 0 60 0 60 -263
0 c-145 0 -265 -2 -266 -5z"/>
<path d="M5950 3465 c0 -30 -1 -58 -2 -62 -2 -4 8 -8 22 -8 24 0 25 2 23 54
-3 49 -13 70 -35 71 -5 0 -8 -25 -8 -55z"/>
<path d="M3088 3339 c4 -4 70 -11 147 -14 77 -4 145 -8 150 -8 6 -1 10 5 10
13 0 13 -24 15 -157 15 -87 1 -154 -2 -150 -6z"/>
<path d="M3450 3329 c0 -16 18 -17 228 -15 268 4 252 3 252 19 0 10 -52 13
-240 13 -221 0 -240 -1 -240 -17z"/>
<path d="M3984 3341 c-17 -18 7 -23 89 -18 50 4 111 6 135 7 23 0 42 3 42 8 0
8 -258 11 -266 3z"/>
<path d="M4266 3341 c-3 -4 6 -6 19 -3 14 2 25 6 25 8 0 8 -39 4 -44 -5z"/>
<path d="M4750 3346 c0 -2 9 -6 20 -9 11 -3 20 -1 20 4 0 5 -9 9 -20 9 -11 0
-20 -2 -20 -4z"/>
<path d="M4805 3340 c-3 -5 -1 -10 4 -10 6 0 11 5 11 10 0 6 -2 10 -4 10 -3 0
-8 -4 -11 -10z"/>
<path d="M4830 3338 c0 -4 17 -8 38 -9 20 0 73 -1 117 -2 45 -1 82 2 85 8 3 6
-39 10 -117 10 -68 1 -123 -3 -123 -7z"/>
<path d="M5123 3337 c-3 -5 -2 -11 2 -15 10 -10 459 -12 476 -2 7 5 10 13 5
17 -10 11 -476 11 -483 0z"/>
<path d="M5658 3333 c-9 -11 -6 -16 12 -15 3 0 70 3 150 7 80 4 151 8 158 8 6
0 12 3 12 6 0 4 -72 7 -160 7 -121 0 -163 -3 -172 -13z"/>
<path d="M2763 3181 c85 -55 122 -69 192 -76 39 -4 84 -8 100 -10 122 -14 308
-20 600 -20 320 0 444 4 660 22 115 10 328 10 425 0 302 -30 1032 -31 1285 -2
17 2 57 7 90 11 62 7 101 23 182 75 l48 31 -80 -7 c-44 -3 -87 -8 -95 -10 -8
-2 -51 -6 -95 -10 -44 -3 -98 -8 -120 -10 -234 -24 -883 -24 -1125 0 -234 23
-396 23 -610 0 -213 -23 -971 -23 -1120 0 -14 2 -56 6 -95 10 -38 4 -86 8
-105 10 -19 2 -69 7 -110 10 l-75 6 48 -30z"/>
<path d="M4497 3074 c-1 -1 -54 -5 -117 -9 -63 -3 -128 -8 -145 -10 -195 -25
-833 -25 -1155 0 -45 4 -50 3 -30 -6 59 -24 187 -47 314 -54 96 -6 217 -16
239 -21 71 -13 163 -19 297 -18 147 1 196 3 420 21 119 10 287 10 410 0 365
-29 588 -29 732 -2 13 3 70 7 128 10 159 8 231 15 280 26 25 6 54 13 65 15 11
2 40 11 65 19 l45 15 -68 -5 c-322 -25 -891 -25 -1162 0 -16 1 -82 6 -145 10
-63 4 -127 8 -143 9 -15 1 -29 1 -30 0z"/>
<path d="M4369 2946 c-3 -4 -45 -7 -259 -21 -19 -2 -62 -4 -95 -5 l-60 -1 105
-36 c117 -39 125 -40 260 -28 125 11 279 11 415 0 146 -12 144 -12 265 28
l105 35 -55 2 c-58 2 -117 6 -240 15 -101 8 -435 17 -441 11z"/>
<path d="M4325 2820 c-33 -5 -64 -5 -70 -2 -5 3 -4 -2 4 -11 7 -9 19 -17 26
-17 7 0 25 -10 41 -22 27 -22 39 -23 197 -24 l168 -2 55 33 c54 32 54 33 27
40 -39 10 -375 14 -448 5z"/>
<path d="M4420 2704 c0 -3 12 -17 26 -32 14 -15 39 -46 54 -70 27 -41 29 -42
40 -23 6 12 31 46 55 75 l44 55 -109 0 c-61 -1 -110 -3 -110 -5z"/>
</g>
</svg>
